<?xml version="1.0" encoding="UTF-8"?>
<svg width="16" height="16" version="1.1" viewBox="0 0 16 16" xmlns="http://www.w3.org/2000/svg" xmlns:xlink="http://www.w3.org/1999/xlink">
    <!--Generated by IJSVG (https://github.com/iconjar/IJSVG)-->
    <g transform="scale(0.175824)">
        <path fill="#E0F1F8" d="M37.033,76.215c-7.057,7.056 -18.494,7.056 -25.551,0l-1.755,-1.754c-7.056,-7.055 -7.056,-18.496 0,-25.551l41.349,-41.35c7.057,-7.057 18.496,-7.057 25.553,0l1.754,1.754c7.055,7.057 7.055,18.496 0,25.553l-41.35,41.348Z"></path>
        <path fill="#454B53" d="M41.986,83.52c-0.643,0 -1.285,-0.246 -1.776,-0.736c-0.981,-0.98 -0.981,-2.572 0.001,-3.553l44.82,-44.816c0.98,-0.98 2.571,-0.98 3.553,0c0.98,0.981 0.98,2.572 0,3.554l-44.82,44.815c-0.491,0.489 -1.134,0.736 -1.778,0.736Z"></path>
        <path fill="#454B53" d="M10.638,52.172c-0.644,0 -1.286,-0.246 -1.776,-0.736c-0.981,-0.981 -0.981,-2.572 0,-3.553l43.325,-43.326c0.98,-0.98 2.572,-0.98 3.553,-1.77636e-15c0.981,0.981 0.981,2.572 0,3.553l-43.326,43.326c-0.49,0.49 -1.133,0.736 -1.776,0.736Z"></path>
        <path fill="#454B53" d="M31.74,74.766c-0.644,0 -1.287,-0.246 -1.777,-0.736c-0.98,-0.981 -0.98,-2.572 0,-3.554l44.07,-44.068c0.98,-0.98 2.571,-0.981 3.553,0.001c0.98,0.98 0.98,2.571 0,3.553l-44.07,44.068c-0.491,0.49 -1.133,0.736 -1.776,0.736Z"></path>
        <path fill="#454B53" d="M75.059,31.443c-0.644,0 -1.287,-0.245 -1.777,-0.736c-0.98,-0.98 -0.98,-2.572 0,-3.553c2.445,-2.444 3.792,-5.693 3.792,-9.148c0,-3.455 -1.347,-6.705 -3.792,-9.149c-5.044,-5.044 -13.249,-5.043 -18.292,-0.002c-0.98,0.982 -2.572,0.982 -3.553,0c-0.98,-0.98 -0.98,-2.571 0,-3.553c7.001,-7.001 18.395,-7.002 25.396,0c3.395,3.394 5.265,7.904 5.265,12.703c0,4.797 -1.87,9.309 -5.265,12.702c-0.489,0.491 -1.132,0.736 -1.774,0.736Z"></path>
        <path fill="#454B53" d="M25.525,90.402c-6.545,0 -12.641,-2.5 -17.21,-7.069c-9.622,-9.622 -9.376,-25.525 0.548,-35.45c0.981,-0.98 2.572,-0.98 3.553,0c0.982,0.981 0.982,2.572 0.001,3.553c-7.966,7.967 -8.211,20.682 -0.548,28.345c3.699,3.7 8.688,5.663 14.014,5.595c5.369,-0.093 10.458,-2.275 14.327,-6.145c0.981,-0.981 2.573,-0.98 3.554,0c0.981,0.98 0.98,2.572 0,3.553c-4.796,4.796 -11.115,7.5 -17.794,7.616c-0.149,0.002 -0.297,0.002 -0.445,0.002Z"></path>
        <path fill="#454B53" d="M19.795,62.813c-0.643,0 -1.285,-0.245 -1.776,-0.735c-0.981,-0.981 -0.981,-2.572 -0.001,-3.554l38.836,-38.843c0.981,-0.98 2.572,-0.98 3.553,0c0.982,0.98 0.982,2.572 0.001,3.553l-38.836,38.843c-0.491,0.491 -1.134,0.736 -1.777,0.736Z"></path>
        <path fill="#454B53" d="M25.765,77.232c-2.806,0 -5.612,-1.066 -7.749,-3.201c-2.074,-2.072 -3.215,-4.826 -3.215,-7.754c0,-2.93 1.141,-5.684 3.214,-7.754c0.983,-0.98 2.573,-0.98 3.554,0.002c0.98,0.981 0.979,2.572 -0.002,3.553c-1.123,1.121 -1.74,2.613 -1.74,4.199c0,1.586 0.617,3.077 1.74,4.199c2.314,2.313 6.082,2.313 8.395,0c0.982,-0.98 2.573,-0.979 3.554,0.002c0.98,0.98 0.979,2.572 -0.001,3.553c-2.138,2.135 -4.944,3.201 -7.75,3.201Z"></path>
    </g>
</svg>