<?xml version="1.0" encoding="UTF-8"?>
<svg width="16" height="16" version="1.1" viewBox="0 0 16 16" xmlns="http://www.w3.org/2000/svg" xmlns:xlink="http://www.w3.org/1999/xlink">
    <!--Generated by IJSVG (https://github.com/iconjar/IJSVG)-->
    <g transform="scale(0.175824)">
        <path fill="#F4767A" d="M74.189,88.237l-28.9,-24.487l-28.904,24.487v-77.39c0,-4.603 3.729,-8.334 8.33,-8.334h41.142c4.604,0 8.333,3.731 8.333,8.334v77.39Z"></path>
        <path fill="#454B53" d="M16.385,90.75c-0.358,0 -0.719,-0.076 -1.057,-0.232c-0.888,-0.412 -1.456,-1.302 -1.456,-2.28v-77.391c-1.77636e-15,-5.982 4.864,-10.847 10.843,-10.847h41.142c5.98,0 10.846,4.865 10.846,10.847v77.391c0,0.979 -0.568,1.868 -1.456,2.28c-0.889,0.41 -1.934,0.27 -2.681,-0.363l-27.277,-23.112l-27.28,23.111c-0.463,0.393 -1.041,0.596 -1.624,0.596Zm8.33,-85.725c-3.208,-5.32907e-15 -5.817,2.611 -5.817,5.821v71.97l24.768,-20.983c0.938,-0.794 2.311,-0.794 3.248,0l24.764,20.982v-71.968c0,-3.21 -2.611,-5.821 -5.82,-5.821h-41.143Z"></path>
        <path fill="#FFF" d="M35.487,55.484c-1.388,0 -2.513,-1.125 -2.513,-2.512v-33.314c0,-1.389 1.125,-2.514 2.513,-2.514c1.388,0 2.513,1.126 2.513,2.514v33.314c0,1.387 -1.125,2.512 -2.513,2.512Z"></path>
        <path fill="#FFF" d="M55.572,55.484c-1.388,0 -2.513,-1.125 -2.513,-2.512v-33.314c0,-1.389 1.125,-2.514 2.513,-2.514c1.388,0 2.513,1.125 2.513,2.514v33.314c0,1.387 -1.125,2.512 -2.513,2.512Z"></path>
    </g>
</svg>