<?xml version="1.0" encoding="UTF-8"?>
<svg width="16" height="16" version="1.1" viewBox="0 0 16 16" xmlns="http://www.w3.org/2000/svg" xmlns:xlink="http://www.w3.org/1999/xlink">
    <!--Generated by IJSVG (https://github.com/iconjar/IJSVG)-->
    <g transform="scale(0.333333)">
        <path fill="#000" d="M24,4c-11.05,0 -20,8.95 -20,20c0,11.05 8.95,20 20,20c11.05,0 20,-8.95 20,-20c0,-11.05 -8.95,-20 -20,-20Zm10,27.17l-2.83,2.83l-7.17,-7.17l-7.17,7.17l-2.83,-2.83l7.17,-7.17l-7.17,-7.17l2.83,-2.83l7.17,7.17l7.17,-7.17l2.83,2.83l-7.17,7.17l7.17,7.17Z"></path>
        <path fill="none" d="M0,0h48v48h-48Z"></path>
    </g>
</svg>