<?xml version="1.0" encoding="UTF-8"?>
<svg width="16" height="16" version="1.1" viewBox="0 0 16 16" xmlns="http://www.w3.org/2000/svg" xmlns:xlink="http://www.w3.org/1999/xlink">
    <!--Generated by IJSVG (https://github.com/iconjar/IJSVG)-->
    <g transform="scale(0.666667)">
        <path fill="none" d="M0,0h24v24h-24Z"></path>
        <path fill="#000" d="M4,3h16h-4.37114e-08c0.552285,-2.41411e-08 1,0.447715 1,1v16v0c0,0.552285 -0.447715,1 -1,1h-16h-4.37114e-08c-0.552285,-2.41411e-08 -1,-0.447715 -1,-1c0,0 0,-3.55271e-15 0,-3.55271e-15v-16l1.15463e-14,1.50996e-07c-8.33927e-08,-0.552285 0.447715,-1 1,-1Zm1,2v14h14v-14h-14Zm6.003,11l-4.243,-4.243l1.414,-1.414l2.829,2.829l5.656,-5.657l1.415,1.414l-7.071,7.071Z"></path>
    </g>
</svg>