<?xml version="1.0" encoding="UTF-8"?>
<svg width="16" height="16" version="1.1" viewBox="0 0 16 16" xmlns="http://www.w3.org/2000/svg" xmlns:xlink="http://www.w3.org/1999/xlink">
    <!--Generated by IJSVG (https://github.com/iconjar/IJSVG)-->
    <g transform="scale(0.175824)">
        <path fill="#7BA7C9" d="M43.101,66.588c-0.052,0.056 -0.118,-0.199 -0.18,-0.161l18.774,18.353h17.664c4.036,0 8.188,-2.724 8.188,-6.759v-18.797l-18.566,-18.569l-25.88,25.933Z"></path>
        <path fill="#B0E0D4" d="M3.668,79.83v5.532h55.648l-28.003,-28.038Z"></path>
        <path fill="#E0F1F8" d="M3.668,6.403v71.273l27.176,-22.146c0.331,-0.269 0.578,-0.25 0.88,0.051l10.071,9.98c0.034,-0.061 0.066,-0.147 0.117,-0.202l26.054,-26.586c0.157,-0.16 0.388,-0.346 0.612,-0.346h0.028c0.227,0 0.784,0.187 0.94,0.348l17.932,18.048v-50.415l-83.81,-0.005Z"></path>
        <path fill="#FDE497" d="M40.142,30.883c0,4.62 -3.749,8.368 -8.369,8.368c-4.624,0 -8.374,-3.749 -8.374,-8.368c0,-4.625 3.75,-8.373 8.374,-8.373c4.62,3.55271e-15 8.369,3.748 8.369,8.373Z"></path>
        <path fill="#454B53" d="M31.773,41.766c-6.004,0 -10.889,-4.882 -10.889,-10.883c0,-6.003 4.884,-10.887 10.889,-10.887c6,0 10.883,4.883 10.883,10.887c0,6 -4.882,10.883 -10.883,10.883Zm0,-16.741c-3.231,0 -5.86,2.628 -5.86,5.858c0,3.228 2.629,5.854 5.86,5.854c3.228,0 5.854,-2.626 5.854,-5.854c0,-3.23 -2.626,-5.858 -5.854,-5.858Z"></path>
        <path fill="#454B53" d="M31.773,17.539c-1.389,0 -2.515,-1.125 -2.515,-2.515v-2.563c0,-1.388 1.126,-2.514 2.515,-2.514c1.389,0 2.514,1.126 2.514,2.514v2.563c0.001,1.39 -1.125,2.515 -2.514,2.515Z"></path>
        <path fill="#454B53" d="M50.189,33.397h-2.555c-1.389,0 -2.515,-1.126 -2.515,-2.515c0,-1.389 1.126,-2.515 2.515,-2.515h2.555c1.389,0 2.515,1.126 2.515,2.515c0,1.389 -1.126,2.515 -2.515,2.515Z"></path>
        <path fill="#454B53" d="M31.773,51.809c-1.389,0 -2.515,-1.127 -2.515,-2.516v-2.553c0,-1.389 1.126,-2.515 2.515,-2.515c1.389,0 2.514,1.125 2.514,2.515v2.553c0.001,1.389 -1.125,2.516 -2.514,2.516Z"></path>
        <path fill="#454B53" d="M15.911,33.397h-2.556c-1.389,0 -2.515,-1.126 -2.515,-2.515c0,-1.389 1.125,-2.515 2.515,-2.515h2.556c1.388,0 2.514,1.126 2.514,2.515c0,1.389 -1.126,2.515 -2.514,2.515Z"></path>
        <path fill="#454B53" d="M42.521,22.646c-0.643,0 -1.286,-0.246 -1.778,-0.736c-0.982,-0.982 -0.982,-2.574 -0.001,-3.557l2.273,-2.274c0.983,-0.979 2.573,-0.982 3.556,-0.001c0.982,0.982 0.982,2.574 0.001,3.557l-2.273,2.274c-0.491,0.491 -1.134,0.737 -1.778,0.737Z"></path>
        <path fill="#454B53" d="M44.794,46.414c-0.626,0 -1.253,-0.232 -1.741,-0.699l-2.273,-2.18c-1.002,-0.962 -1.035,-2.553 -0.075,-3.555c0.962,-1.003 2.554,-1.035 3.556,-0.075l2.273,2.181c1.002,0.961 1.035,2.553 0.074,3.555c-0.494,0.514 -1.153,0.773 -1.814,0.773Z"></path>
        <path fill="#454B53" d="M18.75,46.414c-0.645,0 -1.291,-0.247 -1.781,-0.74c-0.98,-0.984 -0.977,-2.576 0.008,-3.555l2.19,-2.18c0.984,-0.979 2.577,-0.976 3.556,0.008c0.98,0.983 0.976,2.576 -0.008,3.555l-2.19,2.18c-0.491,0.488 -1.133,0.732 -1.775,0.732Z"></path>
        <path fill="#454B53" d="M20.942,22.562c-0.643,0 -1.286,-0.245 -1.777,-0.736l-2.192,-2.188c-0.982,-0.981 -0.984,-2.574 -0.002,-3.556c0.981,-0.981 2.574,-0.983 3.555,-0.002l2.192,2.189c0.982,0.981 0.984,2.573 0.002,3.555c-0.49,0.491 -1.134,0.738 -1.778,0.738Z"></path>
        <path fill="#454B53" d="M79.995,88.49h-77.001c-1.389,0 -2.515,-1.126 -2.515,-2.515v-80.612c0,-0.667 0.265,-1.307 0.737,-1.778c0.471,-0.472 1.111,-0.737 1.778,-0.737v0l85.158,0.003c1.389,0 2.515,1.126 2.515,2.515v72.454c-0.001,5.884 -4.787,10.67 -10.672,10.67Zm-74.487,-5.029h74.487c3.11,0 5.642,-2.53 5.642,-5.641v-69.94l-80.129,-0.003v75.584Z"></path>
        <path fill="#454B53" d="M61.989,88.495c-0.639,0 -1.28,-0.243 -1.771,-0.729l-28.623,-28.408l-27.021,21.829c-1.082,0.875 -2.665,0.703 -3.536,-0.374c-0.873,-1.081 -0.705,-2.663 0.375,-3.536l28.774,-23.245c1,-0.807 2.442,-0.731 3.351,0.171l30.222,29.994c0.986,0.978 0.992,2.569 0.014,3.556c-0.492,0.494 -1.137,0.742 -1.785,0.742Z"></path>
        <path fill="#454B53" d="M43.137,68.31c-0.636,0 -1.271,-0.239 -1.761,-0.72c-0.991,-0.972 -1.006,-2.563 -0.033,-3.556l26.047,-26.541c0.473,-0.482 1.119,-0.753 1.794,-0.753c0.001,0 0.002,0 0.003,0c0.677,0.001 1.324,0.274 1.797,0.758l18.967,19.427c0.97,0.993 0.95,2.585 -0.043,3.556c-0.993,0.97 -2.586,0.952 -3.556,-0.043l-17.172,-17.589l-24.248,24.708c-0.492,0.501 -1.144,0.753 -1.795,0.753Z"></path>
    </g>
</svg>