<?xml version="1.0" encoding="UTF-8"?>
<svg width="16" height="16" version="1.1" viewBox="347.733 122.267 16 16" xmlns="http://www.w3.org/2000/svg" xmlns:xlink="http://www.w3.org/1999/xlink">
    <!--Generated by IJSVG (https://github.com/iconjar/IJSVG)-->
    <g transform="scale(0.133333)">
        <g transform="matrix(1,0,0,1,2383,785)">
            <path fill="#B92B27" d="M102.426,17.5736c23.4315,23.4315 23.4315,61.4214 0,84.8528c-23.4315,23.4315 -61.4214,23.4315 -84.8528,0c-23.4315,-23.4315 -23.4315,-61.4214 -7.10543e-15,-84.8528c23.4315,-23.4315 61.4214,-23.4315 84.8528,-7.10543e-15" transform="matrix(1,0,0,1,225,132)"></path>
            <g transform="matrix(1,0,0,1,3.5,4.5)">
                <path fill="#FFF" d="M34.212,0.5c18.619,0 33.712,14.691 33.712,32.813c0,18.122 -15.093,32.814 -33.712,32.814c-18.619,0 -33.712,-14.691 -33.712,-32.814c0,-18.123 15.093,-32.813 33.712,-32.813Z" transform="matrix(1,0,0,1,245,150)"></path>
                <path fill="#B92B27" d="M18.005,0.9c5.942,0 11.867,2.427 14.474,7.462c2.607,5.035 3.281,12.528 3.281,18.25c0,6.027 -0.132,12.044 -2.562,16.721c-3.118,6.009 -9.456,9.8 -15.193,9.8c-5.217,0 -9.349,-0.629 -13.575,-6.563c-4.226,-5.934 -4.18,-13.162 -4.18,-19.959c0,-6.143 0.045,-13.305 4.18,-19.059c4.135,-5.754 7.917,-6.652 13.575,-6.652Z" transform="matrix(1,0,0,1,261.207,156.253)"></path>
                <path fill="#FFF" d="M2337.82,160l-1.618,-4.135c0,0 4.225,-3.146 11.417,-2.967c7.192,0.179 10.7,3.956 10.7,3.956l5.67375e-07,6.22493e-07c2.19952,2.41319 4.2414,4.96547 6.113,7.641l3.51487e-07,5.20499e-07c1.37791,2.04047 2.49524,4.24524 3.326,6.563c0,0 2.877,5.3 7.462,5.3c4.585,0 5.034,-4.765 5.034,-4.765h4.945c0,0 0.18,7.821 -4.945,12.136c-5.125,4.315 -12.5,3.146 -12.5,3.146l-1.47406e-06,-2.47398e-07c-2.39194,-0.401451 -4.64694,-1.38997 -6.563,-2.877l-6.00188e-07,-5.47872e-07c-2.12564,-1.94036 -3.91638,-4.21832 -5.3,-6.742c0,0 -2.248,-4.562 -4.5,-8.271c-2.252,-3.709 -4.225,-6.473 -4.225,-6.473l9.7536e-08,7.99791e-08c-1.35975,-1.11499 -2.91432,-1.96839 -4.585,-2.517l1.8391e-07,4.2384e-08c-1.56666,-0.361053 -3.1951,-0.359343 -4.761,0.00499923Z" transform="matrix(1,0,0,1,-2067.6,38.415)"></path>
            </g>
        </g>
    </g>
</svg>