<?xml version="1.0" encoding="UTF-8"?>
<svg width="16" height="16" version="1.1" viewBox="0 0 16 16" xmlns="http://www.w3.org/2000/svg" xmlns:xlink="http://www.w3.org/1999/xlink">
    <!--Generated by IJSVG (https://github.com/iconjar/IJSVG)-->
    <g transform="scale(0.0833333)">
        <path fill="#FFCF48" fill-rule="evenodd" d="M130.9,159.9c-1.4,0 -2.7,-0.3 -4,-1l-30.6,-16.1c-0.6,-0.3 -1.2,-0.5 -1.9,-0.5c-0.7,0 -1.3,0.2 -1.9,0.5l-30.6,16.1c-1.3,0.7 -2.6,1 -4,1c-2.5,0 -4.9,-1.1 -6.6,-3.1c-1.6,-1.9 -2.3,-4.4 -1.9,-6.9l5.8,-34.1c0.2,-1.3 -0.2,-2.7 -1.2,-3.6l-24.7,-24.2c-2.3,-2.3 -3.2,-5.7 -2.2,-8.8c1,-3.1 3.7,-5.4 6.9,-5.8l34.2,-5c1.3,-0.2 2.5,-1 3.1,-2.2l15.3,-31c1.5,-2.9 4.4,-4.8 7.7,-4.8c3.3,0 6.2,1.8 7.7,4.8l15.3,31c0.6,1.2 1.7,2 3.1,2.2l34.2,5c3.2,0.5 5.9,2.7 6.9,5.8c1,3.1 0.2,6.5 -2.2,8.8l-24.8,24.1c-1,0.9 -1.4,2.3 -1.2,3.6l5.8,34.1c0.4,2.5 -0.2,5 -1.9,6.9c-1.4,2 -3.8,3.2 -6.3,3.2Z"></path>
        <path fill="#000" d="M94.4,32.7c2.2,0 4.5,1.2 5.7,3.5l15.3,31c0.9,1.9 2.7,3.2 4.7,3.5l34.2,5c5.2,0.8 7.2,7.1 3.5,10.8l-24.8,24c-1.5,1.4 -2.2,3.5 -1.8,5.6l5.8,34.1c0.7,4.1 -2.5,7.4 -6.2,7.4c-1,0 -2,-0.2 -2.9,-0.7l-30.6,-16.1c-0.9,-0.5 -1.9,-0.7 -2.9,-0.7c-1,0 -2,0.2 -2.9,0.7l-30.6,16.1c-1,0.5 -2,0.7 -2.9,0.7c-3.7,0 -6.9,-3.3 -6.2,-7.4l5.8,-34.1c0.4,-2 -0.3,-4.1 -1.8,-5.6l-24.9,-24.1c-3.7,-3.6 -1.7,-10 3.5,-10.8l34.2,-5c2.1,-0.3 3.8,-1.6 4.7,-3.5l15.3,-31c1.3,-2.3 3.5,-3.4 5.8,-3.4m0,-4.5c-4.1,0 -7.9,2.3 -9.7,6l-15.3,31c-0.3,0.5 -0.8,0.9 -1.4,1l-34.2,5c-4.1,0.6 -7.4,3.4 -8.7,7.4c-1.3,3.9 -0.2,8.2 2.7,11.1l24.8,24.1c0.4,0.4 0.6,1 0.5,1.6l-5.8,34.1c-0.5,3.2 0.3,6.3 2.4,8.8c2.1,2.5 5.1,3.9 8.3,3.9c1.8,0 3.4,-0.4 5,-1.3l30.6,-16.1c0.3,-0.1 0.5,-0.2 0.8,-0.2c0.3,0 0.6,0.1 0.8,0.2l30.6,16.1c1.6,0.8 3.3,1.3 5,1.3c3.2,0 6.2,-1.4 8.3,-3.9c2,-2.4 2.9,-5.6 2.4,-8.8l-5.8,-34.1c-0.1,-0.6 0.1,-1.2 0.5,-1.6l24.8,-24.1c3,-2.9 4,-7.1 2.7,-11.1c-1.3,-3.9 -4.6,-6.8 -8.7,-7.4l-34.2,-5c-0.6,-0.1 -1.1,-0.5 -1.4,-1l-15.3,-31c-1.9,-3.7 -5.6,-6 -9.7,-6v0Z"></path>
        <path fill="#FFBC33" fill-rule="evenodd" d="M61.7,150.2l5.8,-34.1c0.2,-1 2.9,-12.8 6.7,-24.5c3.8,-11.7 8.7,-23.5 9.2,-24.4l15.3,-31c0.2,-0.4 0.4,-0.7 0.7,-1c-2.7,-3.6 -8.5,-3.3 -10.7,1l-15.3,31c-0.9,1.9 -2.7,3.2 -4.7,3.5l-34.2,5c-5.2,0.8 -7.2,7.1 -3.5,10.8l24.8,24.1c1.5,1.4 2.2,3.5 1.8,5.6l-5.8,34.1c-0.9,5.2 4.5,9.1 9.2,6.6l2.5,-1.3c-1.5,-1.4 -2.2,-3.3 -1.8,-5.4Z"></path>
    </g>
</svg>